<?xml version="1.0" standalone="no"?>
<!DOCTYPE svg PUBLIC "-//W3C//DTD SVG 20010904//EN"
 "http://www.w3.org/TR/2001/REC-SVG-20010904/DTD/svg10.dtd">
<svg version="1.0" xmlns="http://www.w3.org/2000/svg"
 width="570.000000pt" height="570.000000pt" viewBox="0 0 570.000000 570.000000"
 preserveAspectRatio="xMidYMid meet">
<metadata>
Created by potrace 1.11, written by Peter Selinger 2001-2013
</metadata>
<g transform="translate(0.000000,570.000000) scale(0.100000,-0.100000)"
fill="#000000" stroke="none">
<path d="M2811 5569 c-13 -15 -28 -27 -33 -26 -5 1 -18 -18 -28 -43 -27 -64
-25 -153 4 -245 l24 -76 -24 -11 c-18 -9 -24 -19 -24 -44 0 -30 3 -33 39 -39
l39 -6 6 -127 c3 -70 9 -202 12 -294 6 -144 9 -168 22 -168 15 0 15 -1 0 -16
-21 -21 -131 -24 -177 -5 -65 28 -68 73 -14 210 18 48 22 66 13 71 -7 4 -9 13
-6 19 4 6 3 11 -2 11 -5 0 -23 23 -41 50 -94 145 -221 186 -436 141 -129 -27
-206 -61 -595 -256 -513 -257 -721 -339 -990 -390 -97 -18 -352 -37 -486 -36
-79 1 -92 -1 -96 -17 -6 -21 1 -44 11 -38 4 3 37 6 74 8 69 3 89 13 40 21 -16
2 26 5 92 6 66 1 129 4 140 6 11 1 54 5 95 9 258 19 609 143 1113 393 93 46
173 81 178 77 5 -3 8 0 7 8 -2 8 6 13 19 12 12 0 20 2 18 6 -6 10 85 51 97 44
6 -4 8 -3 5 3 -8 14 120 72 248 113 122 39 253 47 295 18 13 -10 20 -18 15
-18 -6 0 4 -11 20 -25 l30 -25 -45 22 c-25 12 -48 27 -52 32 -11 17 -176 10
-228 -8 -25 -9 -31 -13 -15 -10 50 10 155 12 149 3 -3 -5 7 -9 23 -9 22 0 25
-2 13 -10 -11 -7 -2 -9 33 -8 93 3 75 -19 -78 -92 -111 -53 -206 -85 -298
-100 -63 -10 -110 -5 -105 12 2 5 75 34 163 63 157 52 290 104 270 105 -19 0
-141 -38 -264 -84 -140 -51 -131 -49 -131 -38 0 14 145 78 260 116 120 40 123
48 4 12 -118 -35 -230 -84 -281 -123 -50 -38 -69 -37 -33 2 13 14 20 25 16 25
-14 0 -108 -51 -103 -56 3 -3 15 -1 26 6 12 6 21 7 21 2 0 -5 -39 -27 -86 -48
-48 -21 -116 -58 -152 -82 -70 -47 -97 -52 -35 -6 21 15 43 32 48 37 6 5 -53
-23 -131 -61 -501 -250 -772 -339 -1112 -364 -137 -10 -153 -13 -149 -29 3
-11 -4 -21 -19 -27 -12 -6 -28 -20 -34 -31 -9 -17 -6 -23 17 -38 22 -15 49
-18 148 -18 66 1 139 4 163 8 29 5 41 4 37 -3 -8 -13 -13 -14 85 21 47 16 69
27 50 24 -168 -30 -219 -35 -312 -36 -59 0 -115 4 -125 9 -19 11 -21 10 167
32 219 25 444 85 658 177 49 21 89 32 100 28 16 -6 15 -8 -3 -22 -30 -22 -127
-70 -191 -94 -30 -12 -54 -23 -51 -25 4 -4 99 30 177 64 25 11 56 23 70 27 24
7 25 7 5 -9 -20 -17 -20 -17 4 -10 17 4 22 2 19 -7 -5 -20 -133 -81 -245 -117
-137 -44 -178 -49 -63 -8 105 37 190 74 190 82 0 7 -34 0 -40 -8 -5 -6 -80
-29 -345 -107 -89 -26 -105 -36 -76 -46 27 -8 256 42 461 102 189 56 200 58
200 45 0 -22 -57 -54 -149 -82 -117 -36 -287 -77 -401 -95 l-85 -15 75 7 c41
3 93 7 115 9 22 1 90 18 150 37 209 67 350 107 375 106 39 -2 -211 -84 -459
-150 -64 -17 -123 -35 -131 -40 -9 -5 30 -7 100 -5 132 5 219 25 388 92 63 24
123 44 134 44 34 0 14 -22 -51 -57 -75 -40 -67 -41 36 -7 123 40 133 43 133
39 0 -3 -17 -14 -37 -25 -22 -12 -28 -18 -14 -14 15 4 21 2 17 -4 -10 -17
-177 -73 -229 -78 -39 -3 -120 -32 -95 -34 17 -1 262 53 341 75 67 18 86 21
77 10 -25 -30 -409 -132 -454 -121 -24 6 -27 10 -21 35 l6 28 -63 -13 c-104
-22 -277 -13 -286 15 -2 6 -13 11 -24 11 -16 0 -18 -3 -9 -14 20 -24 125 -39
234 -33 99 5 103 5 112 -16 9 -19 18 -22 77 -22 38 0 64 -4 60 -9 -3 -5 2 -6
12 -3 9 4 65 21 124 38 59 17 148 46 197 64 110 40 147 50 124 32 -8 -7 -18
-20 -22 -29 -5 -15 -3 -16 33 -3 21 8 49 19 62 25 18 9 16 5 -7 -15 -34 -29
-188 -92 -319 -129 -108 -32 -177 -37 -199 -14 -9 8 -13 18 -10 22 4 3 1 6 -6
6 -21 0 -25 -32 -5 -47 19 -15 115 -13 187 3 20 5 27 3 27 -9 0 -8 8 -18 18
-22 24 -9 170 -6 217 5 58 14 65 13 65 -14 0 -49 60 -66 146 -41 33 9 66 18
74 20 13 4 15 -12 15 -103 0 -105 1 -108 42 -193 79 -161 205 -276 361 -329
39 -13 72 -28 72 -32 0 -3 -11 -20 -25 -36 -14 -17 -38 -57 -52 -89 -23 -49
-28 -71 -28 -148 0 -79 3 -97 29 -149 54 -110 193 -224 339 -278 31 -11 57
-24 57 -28 0 -5 -13 -13 -30 -18 -52 -19 -145 -120 -169 -185 -36 -100 -24
-206 32 -265 25 -28 95 -64 183 -98 l62 -23 89 29 c118 38 155 55 146 65 -5 4
-3 5 4 1 16 -9 96 27 86 39 -5 4 0 5 9 2 21 -8 44 28 31 46 -20 26 7 337 28
337 20 0 85 -32 107 -52 12 -12 29 -44 37 -72 19 -62 7 -111 -38 -164 l-32
-37 45 36 c40 32 52 49 81 110 6 14 13 111 10 149 0 9 -20 36 -43 59 -40 42
-41 44 -22 58 11 8 30 12 47 9 23 -5 27 -3 23 12 -4 12 11 28 58 60 96 66 181
161 212 239 l15 38 -35 -37 c-20 -21 -38 -33 -42 -27 -3 6 2 17 12 25 11 9 13
12 5 8 -10 -5 -12 1 -6 27 11 52 35 94 45 79 4 -7 13 -9 19 -6 6 4 11 0 11
-11 1 -11 7 -3 16 17 11 24 14 50 9 85 -7 63 -13 70 -50 70 -22 0 -31 5 -34
20 -2 11 -21 40 -42 65 l-39 45 32 13 c27 12 33 11 40 -2 13 -24 31 -20 19 3
-9 16 -5 21 30 35 151 60 321 236 345 355 4 17 10 28 15 26 16 -10 32 71 34
170 3 98 3 99 29 106 15 4 24 3 21 -2 -4 -5 4 -9 17 -9 13 0 41 -2 63 -6 37
-5 38 -5 20 9 -11 8 -31 18 -45 22 -14 4 -46 18 -72 30 -27 13 -48 19 -48 15
0 -9 -6 -4 -103 79 -54 46 -237 151 -237 135 0 -3 -10 0 -22 8 -35 22 -68 29
-61 12 3 -8 -1 -14 -11 -14 -9 0 -16 7 -16 15 0 17 -26 20 -36 4 -4 -6 -19 -9
-36 -5 -31 6 -89 -13 -114 -39 -17 -17 -51 -20 -56 -5 -2 7 -14 7 -37 0 -31
-9 -33 -8 -28 12 6 20 5 19 -19 -3 -13 -12 -24 -17 -24 -10 0 9 -5 9 -20 1
-14 -8 -20 -8 -20 0 0 6 -6 8 -12 5 -7 -4 0 5 16 18 16 14 43 28 60 31 19 4
26 9 19 14 -7 5 22 24 76 51 l89 43 -54 52 c-30 29 -54 58 -54 64 0 24 37 11
71 -24 52 -55 103 -84 148 -84 97 0 264 -80 371 -176 45 -40 56 -45 107 -46
18 0 30 -4 27 -9 -3 -5 -21 -9 -40 -9 -39 0 -41 -4 -14 -45 11 -16 20 -37 20
-45 0 -9 8 -16 18 -17 9 -1 51 -16 92 -34 120 -52 300 -54 300 -2 0 11 6 14
23 9 12 -3 51 -11 87 -17 69 -12 120 -2 120 23 0 10 -3 9 -9 -1 -14 -22 -111
-8 -235 33 -111 37 -258 107 -238 114 6 2 20 -1 31 -7 24 -14 60 -3 39 11 -22
16 27 2 187 -53 158 -54 281 -74 321 -51 15 9 12 10 -16 6 -60 -9 -427 92
-407 112 3 3 36 -4 74 -16 74 -23 305 -71 311 -65 3 2 -9 7 -24 10 -114 23
-320 95 -296 103 8 2 8 7 -1 16 -7 8 -26 12 -48 9 -60 -8 -309 63 -296 84 3 5
-21 6 -54 5 -105 -6 -295 44 -279 74 3 5 10 8 15 8 23 -4 272 -55 288 -60 9
-3 17 0 17 6 0 16 -96 57 -168 71 -69 13 -101 36 -36 26 l39 -6 -31 14 c-35
16 -59 41 -46 49 5 3 53 -8 107 -25 54 -16 103 -28 109 -27 6 1 28 -4 49 -11
53 -18 58 -7 9 18 -102 52 -196 78 -308 85 -126 8 -205 25 -212 45 -3 9 1 11
14 7 29 -9 155 -26 189 -25 23 0 11 7 -50 30 -87 33 -106 44 -60 35 17 -3 1 5
-35 18 -47 18 -58 25 -39 25 44 2 208 -63 298 -116 30 -18 60 -33 65 -33 6 0
-1 8 -16 17 -31 20 -44 43 -24 43 7 0 56 -16 107 -35 101 -37 194 -60 225 -53
27 6 -45 42 -154 78 -48 16 -88 33 -90 39 -5 15 195 -55 240 -85 68 -44 28
-71 -90 -61 -64 5 -65 5 -39 -11 49 -30 30 -47 -49 -47 l-70 0 31 -22 c16 -12
40 -30 53 -39 32 -23 151 -66 164 -58 6 4 13 2 17 -3 7 -11 130 -47 137 -40 3
2 -39 24 -93 47 -165 71 -203 89 -203 94 0 18 281 -109 305 -138 13 -16 56
-37 124 -60 57 -20 106 -35 107 -33 2 2 -23 16 -56 32 -33 16 -68 37 -77 47
-15 17 -15 18 5 18 11 0 49 -13 84 -29 136 -61 219 -84 309 -87 48 -1 96 -5
108 -9 12 -4 21 -2 21 4 0 6 -17 15 -37 20 -21 5 -58 15 -83 21 -25 7 -108 32
-184 56 -77 25 -146 43 -155 42 -9 -2 29 -16 84 -31 108 -31 300 -101 250 -92
-16 3 -108 31 -202 61 -162 52 -204 74 -150 74 18 1 19 2 6 10 -8 5 -31 5 -51
1 -50 -12 -138 4 -224 40 -113 47 -147 99 -38 58 115 -42 220 -70 254 -67 l35
3 -33 18 c-18 10 -72 31 -120 48 -48 16 -99 35 -114 41 l-28 10 25 20 25 20
118 -36 c64 -19 141 -40 169 -46 29 -7 55 -16 58 -21 14 -21 -81 -23 -142 -3
-10 3 2 -7 25 -24 28 -19 39 -32 30 -35 -16 -6 -27 -2 187 -71 263 -84 485
-112 485 -61 0 17 -21 24 -45 14 -19 -7 -19 -8 3 -8 12 -1 22 -5 22 -11 0 -16
-101 -11 -203 10 -192 39 -366 98 -395 132 -24 30 7 30 91 -1 175 -63 424
-128 450 -117 7 2 1 5 -13 6 -23 1 -23 2 -5 9 17 7 14 10 -20 19 -22 7 -90 27
-150 46 -60 19 -111 33 -113 31 -5 -4 146 -61 188 -70 19 -5 30 -10 23 -12
-17 -6 -240 70 -314 108 -35 17 -74 43 -85 57 -12 13 -27 21 -33 18 -13 -8
-165 33 -232 63 -58 26 -29 27 39 1 29 -11 58 -20 65 -19 6 0 -12 9 -42 20
-51 18 -85 38 -78 45 2 2 53 -14 113 -35 159 -57 183 -66 291 -114 144 -65
165 -67 37 -4 -61 30 -114 60 -118 66 -15 24 28 22 79 -3 99 -48 229 -97 325
-121 85 -22 146 -32 303 -51 47 -5 62 -19 30 -27 -14 -4 -15 -5 -2 -6 8 0 24
5 34 13 19 14 19 15 1 35 -10 11 -39 30 -64 42 -37 19 -42 24 -27 29 11 4 -16
10 -63 14 -199 16 -375 79 -711 252 -101 52 -178 87 -170 77 8 -10 19 -21 24
-25 6 -5 6 -8 -1 -8 -7 0 -33 17 -58 38 -54 45 -219 134 -239 130 -7 -2 -33
13 -57 32 -25 19 -37 24 -26 12 11 -12 17 -24 15 -26 -2 -2 -49 14 -104 36
-130 51 -237 89 -242 84 -6 -6 142 -67 256 -104 62 -21 113 -42 114 -47 4 -19
-74 -16 -156 5 -128 33 -356 147 -342 171 9 13 46 11 75 -4 15 -8 34 -11 45
-6 18 6 19 7 3 14 -10 4 -15 12 -11 18 4 7 0 8 -11 4 -10 -4 -26 -1 -37 7 -29
20 -6 25 71 15 75 -11 108 -5 38 6 -48 7 -67 25 -27 25 36 0 194 -57 286 -104
85 -42 247 -132 383 -210 111 -65 389 -202 507 -250 140 -58 280 -94 403 -104
66 -5 94 -11 92 -20 -1 -9 23 -12 92 -12 75 0 95 3 100 15 8 21 6 21 -195 34
-302 18 -528 93 -869 286 -41 23 -93 53 -115 65 -22 12 -99 55 -172 96 -444
251 -636 278 -773 110 -48 -59 -90 -75 -90 -36 0 29 37 99 74 140 24 26 25 30
6 15 -79 -62 -119 -131 -120 -205 0 -25 12 -82 27 -127 l27 -83 -22 -30 c-26
-35 -21 -38 15 -10 34 26 41 25 36 -5 -4 -16 -19 -31 -47 -45 -47 -22 -88 -25
-132 -10 l-29 10 0 188 c0 129 -4 193 -12 207 -11 18 -12 18 -13 3 0 -10 -4
-18 -10 -18 -13 0 -4 105 12 144 10 25 13 27 24 12 10 -14 13 -11 19 21 8 42
19 53 53 53 13 0 22 6 22 16 0 12 -6 15 -25 10 -13 -3 -57 0 -97 9 -45 9 -147
16 -264 18 -105 2 -196 7 -203 11 -20 13 -12 26 17 26 15 0 33 5 39 11 7 7 86
10 251 7 l241 -3 15 55 c26 98 30 140 12 140 -8 0 -19 -6 -23 -12 -19 -31 -87
-50 -95 -28 -5 17 -239 54 -260 41 -25 -16 -58 -14 -64 4 -4 9 -19 15 -41 15
-28 0 -36 5 -47 30 -9 22 -15 27 -24 18 -20 -20 -5 50 18 82 12 17 18 30 14
30 -3 0 -1 6 5 14 7 8 8 16 4 19 -4 3 -19 -8 -32 -24z m-11 -172 c0 -5 -4 -5
-10 -2 -5 3 -10 14 -10 23 0 15 2 15 10 2 5 -8 10 -19 10 -23z m220 -187 c0
-5 -9 -10 -21 -10 -11 0 -17 5 -14 10 3 6 13 10 21 10 8 0 14 -4 14 -10z
m-101 -234 c13 -53 15 -368 2 -347 -5 7 -12 74 -16 147 -4 74 -11 134 -16 134
-5 0 -9 5 -9 11 0 5 4 7 10 4 5 -3 2 7 -7 23 -14 25 -15 34 -5 57 16 34 27 26
41 -29z m90 23 c13 -37 15 -391 2 -371 -4 7 -9 44 -10 82 -1 38 -4 80 -7 92
-3 13 -8 40 -11 61 -3 20 -10 37 -14 37 -12 0 -11 73 1 104 13 35 26 33 39 -5z
m97 -27 c7 -29 10 -87 7 -130 -2 -42 -5 -104 -5 -137 -1 -47 -3 -53 -9 -30 -3
17 -7 55 -8 86 -1 78 -11 119 -27 119 -8 0 -14 5 -14 10 0 6 6 10 13 10 9 0 9
2 0 8 -11 7 -10 41 3 100 8 38 28 19 40 -36z m90 21 c13 -63 10 -246 -3 -268
-11 -17 -13 -9 -13 50 -1 73 -9 105 -25 108 -6 1 -8 24 -7 51 7 93 35 127 48
59z m-701 -133 c-3 -5 -10 -10 -15 -10 -4 0 -44 -21 -87 -46 -90 -54 -177 -92
-286 -124 -43 -13 -80 -27 -83 -32 -3 -4 -13 -8 -22 -8 -38 1 31 39 126 71 89
29 176 69 292 134 45 25 86 34 75 15z m1230 -70 c55 -34 122 -69 149 -78 112
-39 200 -78 204 -90 3 -10 -3 -10 -27 3 -17 9 -35 14 -40 11 -4 -3 -34 2 -66
11 -45 13 -54 18 -39 24 13 5 15 8 4 8 -23 1 -148 63 -222 110 -36 22 -73 41
-82 41 -9 0 -16 5 -16 10 0 22 40 7 135 -50z m-164 -62 c15 -40 17 -42 94 -64
79 -23 117 -26 52 -5 -39 13 -132 70 -125 77 3 2 49 -14 102 -37 86 -35 192
-64 319 -84 23 -4 35 -10 31 -17 -6 -9 -62 -7 -159 8 -16 3 -3 -4 30 -16 33
-11 69 -20 80 -20 34 -1 320 -94 346 -113 l24 -17 -45 6 c-40 6 -212 58 -264
79 -14 6 -17 5 -12 -3 10 -17 -19 -15 -34 2 -6 8 -18 12 -25 10 -7 -3 -23 -1
-34 6 -19 10 -108 37 -275 85 -43 12 -56 19 -45 26 11 7 9 9 -8 9 -26 0 -29
-9 -10 -32 12 -17 234 -87 340 -108 55 -11 78 -30 36 -30 -26 0 -195 43 -300
76 -44 14 -87 23 -94 20 -18 -7 -65 101 -63 147 2 49 20 47 39 -5z m-1051 18
c0 -15 -107 -66 -200 -94 -93 -28 -242 -47 -266 -34 -24 13 -18 15 90 32 108
16 177 35 271 75 91 38 105 41 105 21z m85 -38 c-10 -47 -38 -92 -59 -96 -16
-3 -18 1 -13 26 12 62 35 102 57 102 19 0 21 -4 15 -32z m-771 -22 c-3 -8 -19
-20 -35 -26 -46 -19 -28 -22 22 -4 45 17 185 26 170 11 -28 -28 -308 -117
-367 -117 -36 0 -37 17 -1 29 24 9 28 14 18 20 -10 7 13 22 80 55 99 48 122
55 113 32z m691 -5 c-6 -4 -48 -18 -95 -30 -130 -34 -241 -71 -282 -94 -21
-11 -41 -18 -44 -14 -10 10 53 43 124 65 37 11 112 34 167 50 102 31 147 39
130 23z m1768 -27 c88 -44 129 -73 122 -84 -3 -5 4 -11 15 -15 11 -3 20 -11
20 -17 0 -27 -159 14 -302 78 l-62 29 41 8 c34 6 53 3 104 -18 82 -33 88 -31
16 6 -32 16 -55 34 -52 39 10 15 21 12 98 -26z m-1086 4 c-3 -8 -6 -5 -6 6 -1
11 2 17 5 13 3 -3 4 -12 1 -19z m-697 -43 c0 -24 -253 -95 -340 -95 -67 0 -38
14 90 44 63 14 142 35 175 46 74 23 75 23 75 5z m-510 -14 c0 -11 -48 -30
-194 -76 -66 -20 -130 -43 -142 -52 -28 -18 -51 -9 -33 13 19 24 45 35 179 80
121 41 190 54 190 35z m2242 -54 c140 -51 210 -89 189 -102 -6 -3 -21 1 -34
10 -13 8 -75 33 -138 54 -125 42 -179 66 -179 81 0 15 7 13 162 -43z m-2122
37 c0 -21 -277 -111 -373 -120 l-52 -6 30 20 c17 11 102 39 189 61 88 23 162
44 165 46 6 7 41 6 41 -1z m375 -32 c-50 -9 -184 -56 -180 -62 3 -5 -5 -6 -17
-3 -17 3 -19 2 -9 -5 11 -8 9 -11 -8 -17 -11 -3 -26 -3 -33 1 -10 5 -10 4 -2
-5 10 -11 97 -6 222 15 51 8 57 -9 10 -25 -37 -13 -195 -30 -278 -31 l-55 0
44 40 c25 22 54 40 65 40 12 1 66 18 121 39 80 31 104 36 120 28 l20 -11 -20
-4z m532 -4 c-3 -8 -6 -5 -6 6 -1 11 2 17 5 13 3 -3 4 -12 1 -19z m-354 -99
c32 -17 54 -20 113 -17 40 2 70 0 68 -4 -3 -5 -14 -8 -24 -8 -10 0 -21 -4 -24
-8 -2 -4 12 -6 32 -5 32 3 34 2 15 -7 -27 -11 -30 -18 -6 -16 13 1 19 -10 25
-43 8 -46 0 -70 -34 -107 -19 -21 -19 -21 45 -58 66 -39 127 -105 127 -138 0
-17 -1 -17 -25 -2 -21 14 -26 14 -30 2 -9 -22 -96 -15 -112 9 -21 31 -47 54
-78 70 -16 8 -40 24 -52 35 -28 26 -59 18 -43 -12 10 -20 -3 -30 -14 -11 -10
15 -56 9 -66 -9 -5 -10 -7 -19 -5 -22 3 -3 -6 -11 -20 -18 -21 -11 -29 -11
-50 0 -22 12 -32 11 -80 -9 -58 -24 -123 -60 -215 -116 -56 -35 -80 -42 -80
-25 0 5 -8 6 -17 3 -24 -10 15 45 64 88 21 18 46 45 55 61 10 15 34 36 53 45
19 9 35 21 35 25 0 5 14 14 30 20 24 8 28 13 20 23 -9 11 -7 12 9 8 22 -6 93
38 73 45 -17 5 -15 22 2 22 8 0 18 5 22 11 5 9 -1 10 -21 5 -45 -11 -14 18 41
39 25 9 44 19 42 20 -2 2 -30 -3 -63 -11 -33 -7 -93 -14 -133 -14 -107 0 -89
20 39 46 57 11 118 23 134 27 41 8 64 -6 46 -27 -16 -20 -8 -20 27 -2 15 7 37
17 49 20 22 7 22 6 6 -24 -10 -21 -30 -38 -60 -51 -52 -22 -93 -25 -48 -4 25
12 26 14 5 9 -45 -11 -56 -21 -32 -29 34 -10 123 20 175 60 25 19 51 35 56 35
6 0 11 4 11 9 0 5 8 12 18 14 9 3 -7 5 -36 6 -92 2 -203 62 -201 109 0 11 3
12 6 4 7 -19 23 -4 16 16 -3 9 11 -2 32 -26 20 -23 55 -52 78 -63z m-601 71
c30 0 -31 -29 -122 -59 -58 -18 -116 -39 -129 -46 l-25 -13 31 -6 c33 -8 101
7 222 49 79 26 121 32 121 15 0 -6 -12 -15 -26 -20 -14 -6 -23 -14 -20 -19 8
-12 -12 -26 -59 -41 -62 -20 -135 -60 -108 -60 12 0 25 5 29 11 3 6 16 8 28 5
13 -3 64 6 115 19 111 30 123 31 114 8 -4 -11 7 -6 33 15 35 28 46 31 94 30
30 -1 80 1 110 5 40 5 31 1 -30 -13 -47 -10 -95 -16 -108 -13 -16 4 -31 -2
-50 -20 -15 -15 -36 -26 -47 -25 -11 0 -45 -9 -75 -20 l-55 -20 55 5 c71 7 62
-1 -20 -21 -63 -14 -153 -57 -166 -78 -4 -6 -3 -9 2 -6 23 13 53 21 92 25 24
2 86 13 139 23 120 25 137 25 128 3 -5 -15 -4 -16 6 -5 7 6 24 12 39 11 15 0
19 -3 10 -6 -8 -3 -22 -11 -30 -18 -24 -19 -120 -55 -149 -56 -14 0 -42 -7
-61 -14 -28 -11 -30 -14 -12 -14 12 -1 30 4 40 10 13 8 26 7 52 -3 l34 -14
-34 -24 c-18 -13 -31 -19 -27 -13 4 6 -9 13 -35 16 -60 8 -72 37 -24 57 13 6
-10 7 -65 4 -58 -5 -93 -3 -108 6 l-23 12 24 25 c12 14 44 35 69 47 l46 22
-89 -4 c-105 -5 -129 6 -88 41 l25 22 -72 -4 c-85 -4 -118 3 -127 25 -9 22 14
38 101 71 48 18 68 30 60 36 -7 5 -1 6 16 2 20 -4 27 -2 22 6 -5 8 -1 9 15 4
17 -5 21 -4 15 6 -6 9 -3 11 9 6 10 -4 29 -4 43 -1 19 5 22 9 11 16 -10 7 -8
8 5 4 10 -3 23 -6 29 -6z m1461 -36 c-17 -26 -17 -27 6 -19 15 5 21 4 17 -3
-3 -6 -1 -12 6 -15 7 -2 3 -3 -8 -1 -12 2 -43 -5 -69 -17 -52 -23 -148 -30
-167 -11 -9 9 0 12 42 12 58 0 118 23 159 59 32 28 35 27 14 -5z m-1476 -10
c-6 -7 -207 -74 -217 -73 -17 0 67 36 130 55 80 24 97 28 87 18z m2014 -18
c54 -17 151 -57 146 -62 -1 -2 -50 15 -107 36 -106 39 -124 52 -39 26z m-1516
-6 c-3 -5 -10 -10 -16 -10 -5 0 -9 5 -9 10 0 6 7 10 16 10 8 0 12 -4 9 -10z
m-1045 -26 c-51 -22 -171 -54 -200 -53 -23 0 -23 1 -5 9 11 5 61 20 110 34
103 28 149 33 95 10z m1057 0 c-3 -3 -12 -4 -19 -1 -8 3 -5 6 6 6 11 1 17 -2
13 -5z m1008 -4 c3 -5 -1 -10 -10 -10 -9 0 -13 5 -10 10 3 6 8 10 10 10 2 0 7
-4 10 -10z m1004 -20 c41 -12 82 -25 90 -30 33 -19 -30 -10 -107 16 -140 47
-129 56 17 14z m-2989 13 c-8 -3 -22 -11 -30 -18 -8 -7 -41 -21 -73 -30 -32
-9 -57 -19 -54 -21 2 -2 33 5 68 15 57 18 82 20 67 5 -13 -12 -224 -65 -242
-60 -11 3 -28 -2 -38 -11 -11 -9 -18 -11 -18 -5 0 6 12 20 27 29 28 19 267
101 293 101 13 0 13 0 0 -5z m3165 -41 c-6 -7 -34 29 -34 43 0 6 9 -1 20 -14
11 -13 17 -26 14 -29z m-1415 20 c0 -5 -13 -7 -30 -4 -16 2 -30 6 -30 8 0 2
14 4 30 4 17 0 30 -4 30 -8z m307 2 c-3 -3 -12 -4 -19 -1 -8 3 -5 6 6 6 11 1
17 -2 13 -5z m176 -25 c49 -40 40 -51 -10 -13 -20 16 -44 32 -53 36 -12 5 -11
7 5 7 11 1 37 -13 58 -30z m-15 -34 c28 -10 -2 -25 -51 -25 -98 0 -251 49
-218 69 10 7 232 -30 269 -44z m192 23 c10 -6 7 -7 -10 -2 -14 3 -32 11 -40
16 -10 6 -7 7 10 2 14 -3 32 -11 40 -16z m-2284 -3 c13 -13 10 -16 -23 -30
-80 -34 -292 -85 -347 -85 -24 0 -53 16 -45 25 3 3 86 25 184 50 98 24 180 47
183 50 10 10 33 5 48 -10z m369 6 c-6 -5 -23 -12 -40 -15 -28 -6 -28 -5 5 8
43 18 46 18 35 7z m1243 -44 c11 -24 33 -52 47 -61 24 -16 26 -20 12 -33 -32
-32 -106 37 -107 100 0 51 22 48 48 -6z m-1465 6 c-7 -2 -21 -2 -30 0 -10 3
-4 5 12 5 17 0 24 -2 18 -5z m1543 -14 c19 -22 19 -22 -3 -10 -13 6 -23 16
-23 21 0 15 5 12 26 -11z m-1659 5 c-3 -3 -12 -4 -19 -1 -8 3 -5 6 6 6 11 1
17 -2 13 -5z m-38 -8 c-2 -2 -51 -20 -109 -41 -58 -20 -118 -46 -135 -57 -16
-11 -21 -17 -10 -13 11 4 43 9 70 10 28 2 90 17 139 34 93 32 126 38 126 22 0
-15 -116 -67 -190 -86 -72 -19 -157 -16 -170 6 -11 17 -5 26 33 46 63 32 267
98 246 79z m2662 -35 c74 -25 155 -60 139 -60 -3 0 -59 20 -125 44 -135 50
-144 60 -14 16z m-383 -13 c58 -18 30 -17 -53 3 -61 14 -68 17 -30 13 28 -3
65 -10 83 -16z m-2378 -19 c-46 -16 -89 -28 -94 -26 -12 4 143 57 164 56 8 0
-23 -14 -70 -30z m583 24 c-7 -2 -19 -2 -25 0 -7 3 -2 5 12 5 14 0 19 -2 13
-5z m-50 -10 c-7 -2 -19 -2 -25 0 -7 3 -2 5 12 5 14 0 19 -2 13 -5z m-287 -12
c-3 -5 -65 -32 -136 -61 -72 -29 -129 -55 -126 -57 7 -7 116 21 116 30 0 5 7
6 16 3 10 -4 13 -2 8 6 -5 7 0 9 14 6 12 -4 61 7 109 22 48 16 89 27 91 25 2
-2 -1 -12 -7 -23 -20 -38 -201 -92 -308 -93 -123 -1 -102 24 87 103 114 47
146 56 136 39z m-11 -40 c-47 -21 -92 -36 -85 -28 7 8 103 46 115 46 6 0 -8
-8 -30 -18z m2345 9 c8 -5 11 -10 5 -10 -5 0 -17 5 -25 10 -8 5 -10 10 -5 10
6 0 17 -5 25 -10z m3 -85 c104 -41 131 -60 107 -76 -31 -20 -208 25 -264 66
-40 30 -3 26 113 -14 189 -64 204 -47 19 20 -49 17 -88 33 -88 35 0 9 27 2
113 -31z m-2243 21 c0 -2 -43 -20 -95 -41 -165 -64 -113 -62 84 4 121 40 135
15 17 -32 -106 -43 -236 -57 -236 -26 0 15 48 41 132 70 83 29 98 33 98 25z
m-591 -20 c-8 -8 -402 -126 -418 -125 -22 1 95 41 254 89 116 34 176 47 164
36z m-594 -32 c-27 -7 -54 -13 -60 -13 -17 2 69 27 90 27 11 0 -2 -6 -30 -14z
m4372 10 c-3 -3 -12 -4 -19 -1 -8 3 -5 6 6 6 11 1 17 -2 13 -5z m-3010 -10
c-3 -3 -12 -4 -19 -1 -8 3 -5 6 6 6 11 1 17 -2 13 -5z m-47 -13 c-8 -5 -49
-18 -90 -29 -41 -11 -83 -23 -92 -27 -11 -4 -18 -3 -18 4 0 11 32 22 135 45
72 17 85 18 65 7z m-1393 -7 c-3 -3 -12 -4 -19 -1 -8 3 -5 6 6 6 11 1 17 -2
13 -5z m1403 -55 c0 -18 -54 -30 -124 -27 -39 2 -71 8 -71 13 0 6 32 12 72 15
39 3 74 8 78 11 9 9 45 -1 45 -12z m60 -4 c-13 -14 -26 -23 -28 -20 -7 7 29
45 41 45 6 0 0 -11 -13 -25z m-300 -14 c0 -4 -54 -30 -120 -56 -66 -26 -119
-50 -116 -52 2 -2 35 9 73 25 38 16 85 32 104 36 41 7 38 6 -126 -64 l-120
-51 63 6 c35 3 75 10 89 16 13 5 34 9 46 9 38 -1 -25 -29 -101 -45 -92 -20
-161 -19 -169 1 -3 8 -12 13 -20 10 -8 -4 -13 -2 -11 4 1 5 86 43 187 84 101
41 186 77 189 80 9 9 32 7 32 -3z m2083 -27 c55 -38 87 -102 87 -171 0 -28 -4
-55 -10 -58 -5 -3 -32 -9 -60 -12 l-50 -6 0 32 c0 20 8 38 21 49 46 37 50 45
44 71 -7 33 -60 79 -100 87 -16 3 -43 0 -59 -6 -37 -14 -53 5 -28 33 25 28
101 18 155 -19z m-3020 19 c-7 -2 -19 -2 -25 0 -7 3 -2 5 12 5 14 0 19 -2 13
-5z m1570 -16 c6 -15 -101 -91 -154 -108 -34 -12 -69 -36 -69 -49 0 -3 6 -14
13 -24 12 -16 16 -17 35 -5 24 15 35 9 26 -15 -4 -9 -17 -16 -34 -16 -23 0
-30 -6 -40 -34 -6 -18 -21 -38 -35 -44 -30 -14 -41 -53 -25 -92 12 -29 96
-120 110 -120 5 0 13 -13 19 -30 16 -48 -13 -38 -78 28 -96 96 -129 220 -90
344 29 93 52 112 184 147 129 35 131 35 138 18z m347 -34 c0 -9 -7 -10 -26 -2
-40 14 -44 18 -38 34 5 13 10 12 35 -2 16 -10 29 -23 29 -30z m653 41 c12 -12
-6 -34 -29 -34 -23 0 -32 18 -17 33 8 9 38 9 46 1z m54 0 c-3 -3 -12 -4 -19
-1 -8 3 -5 6 6 6 11 1 17 -2 13 -5z m160 -41 c-7 -8 -38 -20 -67 -28 -58 -15
-190 -31 -190 -22 0 3 30 10 68 16 74 13 162 41 162 52 0 4 9 5 21 2 18 -5 19
-8 6 -20z m-1075 -24 c24 -6 93 -15 153 -20 l110 -7 -125 3 c-126 4 -193 16
-206 37 -5 7 -2 9 9 5 9 -3 35 -11 59 -18z m1145 15 c-3 -3 -12 -4 -19 -1 -8
3 -5 6 6 6 11 1 17 -2 13 -5z m-1797 -29 c0 -15 -226 -112 -237 -101 -3 3 7
10 22 16 59 23 171 71 185 80 16 11 30 13 30 5z m113 -35 c-3 -11 -10 -23 -16
-27 -5 -3 -8 -2 -5 3 3 5 8 17 11 27 9 24 16 22 10 -3z m2277 -5 c59 -7 86
-13 73 -17 -27 -7 -147 7 -186 21 -33 13 -36 25 -4 15 12 -4 65 -12 117 -19z
m-683 -40 c8 -23 4 -23 -62 -4 l-60 17 58 1 c43 1 59 -3 64 -14z m-1737 -16
c0 -29 -122 -65 -165 -49 -39 15 -29 30 21 30 25 0 43 4 40 9 -4 5 4 7 16 3
11 -3 19 -1 16 4 -3 5 12 10 33 11 21 0 39 -3 39 -8z m1579 -33 c24 -9 56 -16
71 -16 27 0 48 -24 30 -35 -21 -13 -200 46 -200 66 0 10 46 4 99 -15z m-699 4
c0 -12 -125 -86 -197 -116 -70 -28 -55 -32 19 -5 29 11 45 14 34 8 -40 -26
-66 -49 -66 -59 0 -18 77 0 140 32 33 17 65 30 71 30 17 0 -18 -36 -58 -61
-18 -11 -33 -27 -33 -34 0 -18 23 -32 28 -17 2 7 24 12 53 12 48 0 49 -1 43
-25 -4 -15 -2 -25 5 -25 7 0 11 -23 11 -60 0 -60 0 -60 -30 -60 -149 0 -296
59 -387 156 -46 48 -86 126 -72 138 2 2 33 6 69 10 57 6 63 6 46 -7 -27 -20
-13 -54 25 -62 37 -8 50 0 14 9 -34 9 -32 26 4 26 15 0 82 27 147 59 127 64
134 66 134 51z m-254 -9 c-4 -5 -1 -11 6 -13 23 -8 -85 -38 -135 -38 -57 0
-62 21 -6 27 19 2 55 9 80 17 55 17 62 18 55 7z m795 -41 c45 -22 98 -43 118
-46 20 -4 41 -11 48 -16 18 -15 26 10 9 28 -24 24 -20 26 32 19 35 -5 60 -2
91 11 23 9 44 14 47 11 11 -11 -19 -82 -53 -129 -86 -119 -208 -191 -361 -213
-158 -23 -161 -23 -72 -18 47 3 108 9 135 14 72 13 199 79 277 143 37 31 75
56 83 56 9 0 22 15 30 33 10 25 23 36 51 45 24 7 42 8 49 2 7 -6 14 -8 17 -5
12 13 29 -27 30 -71 2 -51 -18 -105 -52 -142 -11 -12 -20 -25 -20 -29 0 -9
-36 -34 -46 -32 -4 0 -10 -3 -13 -9 -8 -12 -111 -84 -111 -77 0 3 -13 -1 -29
-10 -76 -39 -139 -46 -431 -50 -301 -4 -350 -7 -443 -31 -74 -18 -74 -18 -51
7 11 12 -4 6 -35 -15 -29 -20 -57 -34 -61 -31 -5 3 -25 -4 -45 -16 -20 -12
-39 -19 -42 -15 -4 3 -2 6 3 6 6 0 29 18 53 40 23 22 46 40 51 40 4 0 10 6 13
14 4 11 0 12 -21 6 -15 -4 -26 -12 -25 -18 3 -12 -68 -65 -76 -57 -6 7 29 44
73 76 31 23 42 26 58 18 15 -8 24 -7 36 4 17 15 158 67 184 67 16 1 97 39 83
40 -5 0 -3 4 5 10 9 6 17 5 22 -3 8 -13 87 -10 104 4 6 5 25 6 41 3 18 -4 33
-1 37 5 4 6 12 11 17 11 6 0 7 -5 3 -11 -8 -13 45 -4 59 10 5 5 11 43 14 85
l6 76 35 0 c34 0 35 0 17 20 -10 11 -26 22 -35 25 -15 5 -19 22 -11 42 1 1 26
-9 56 -23 56 -24 115 -32 115 -15 0 6 -19 22 -42 36 -24 15 -34 24 -23 20 49
-18 128 -36 138 -32 7 2 -6 7 -28 11 -71 13 -256 116 -207 116 6 0 48 -18 93
-40z m-541 15 c0 -2 -10 -9 -22 -15 -22 -11 -22 -10 -4 4 21 17 26 19 26 11z
m-483 -41 c-3 -3 -12 -4 -19 -1 -8 3 -5 6 6 6 11 1 17 -2 13 -5z m57 -103 c25
-53 130 -154 191 -184 28 -14 87 -35 133 -47 46 -12 80 -25 77 -29 -17 -17
-87 -28 -127 -20 -70 13 -83 11 -132 -26 -25 -20 -46 -32 -46 -28 0 17 59 73
77 73 14 1 12 6 -12 25 -16 13 -38 31 -47 40 -10 8 -21 15 -24 15 -3 0 -15 11
-26 25 -11 14 -39 35 -61 46 -57 29 -77 48 -77 74 0 13 -7 28 -15 35 -22 18
-1 40 39 40 26 0 34 -6 50 -39z m1652 -43 c1 -23 -6 -38 -28 -56 -16 -14 -42
-37 -56 -51 -50 -48 -67 -56 -30 -14 21 23 54 67 74 98 20 30 37 55 38 55 1 0
2 -14 2 -32z m-1009 -164 c-3 -3 -12 -4 -19 -1 -8 3 -5 6 6 6 11 1 17 -2 13
-5z m-592 -85 c4 -5 0 -9 -7 -9 -17 1 -89 65 -81 73 6 6 77 -45 88 -64z m749
-95 c25 -4 46 -11 46 -16 0 -12 -181 0 -194 13 -12 11 78 12 148 3z m131 -34
c27 -7 27 -8 5 -8 -14 0 -38 4 -55 8 -27 7 -27 8 -5 8 14 0 39 -4 55 -8z
m-865 -111 c-12 -16 -25 -28 -28 -25 -5 6 36 56 45 56 3 0 -5 -14 -17 -31z
m841 5 c63 -19 113 -53 140 -98 47 -78 1 -249 -91 -334 l-25 -23 32 22 c35 24
93 92 93 109 0 13 54 70 67 70 13 0 40 -31 42 -50 7 -51 7 -97 2 -118 -10 -38
-88 -109 -144 -130 -94 -36 -212 -71 -274 -81 -71 -11 -291 -75 -343 -98 -53
-25 -108 -33 -114 -17 -3 7 3 18 12 26 13 11 14 11 8 -1 -10 -16 -9 -15 61 21
28 15 55 33 59 40 6 10 4 10 -8 0 -11 -8 -18 -9 -23 -3 -3 6 7 13 22 16 81 16
177 57 165 70 -4 5 -1 5 6 1 17 -10 54 3 46 16 -5 7 0 9 15 5 12 -3 27 0 34 7
6 6 23 12 36 13 13 1 27 7 31 14 4 6 12 9 18 5 6 -3 13 -2 17 4 4 6 11 7 17 4
7 -4 8 -2 4 4 -4 7 -3 12 2 12 5 0 10 35 11 78 3 218 15 432 25 432 1 0 27 -7
57 -16z m-417 -86 c3 -40 7 -145 8 -233 l2 -160 -24 3 c-14 2 -47 10 -75 18
l-50 14 44 -39 c57 -49 49 -61 -37 -59 l-67 1 65 7 c36 4 57 7 47 8 -25 3 -99
73 -126 123 -13 23 -19 39 -13 35 6 -4 3 13 -8 36 -23 52 -26 137 -5 177 24
47 94 100 160 121 33 10 63 19 66 19 4 1 9 -32 13 -71z m716 12 c22 -42 27
-105 9 -115 -16 -10 -19 -3 -24 60 -3 32 -10 66 -15 76 -13 23 -13 32 0 24 6
-4 19 -24 30 -45z m-1032 -140 c-13 -20 -28 -27 -28 -12 0 10 22 32 32 32 5 0
3 -9 -4 -20z m36 -35 c-4 -8 -11 -15 -16 -15 -6 0 -5 6 2 15 7 8 14 15 16 15
2 0 1 -7 -2 -15z m-60 -40 c4 -19 24 -68 45 -110 20 -41 34 -75 30 -75 -4 0
-28 23 -53 51 -53 59 -74 115 -57 148 17 30 28 26 35 -14z m1081 -132 c-24
-39 -66 -83 -90 -95 -11 -6 4 13 33 43 29 30 55 62 58 72 3 10 8 16 11 13 3
-3 -2 -18 -12 -33z m-125 -123 c-35 -24 -54 -31 -30 -11 14 11 30 21 35 21 6
0 3 -5 -5 -10z m-76 -45 c-10 -8 -26 -14 -34 -14 -9 0 -4 6 10 14 33 19 49 19
24 0z m-94 -39 c-27 -15 -129 -37 -164 -35 -12 0 17 9 63 20 46 10 86 21 89
24 3 3 12 5 21 5 10 -1 7 -6 -9 -14z m-240 -56 c0 -5 12 -10 27 -10 59 0 11
-10 -68 -14 -46 -3 -100 -7 -119 -10 -32 -6 -33 -6 -10 5 26 12 123 36 153 38
9 1 17 -3 17 -9z m-187 -212 c11 -141 9 -198 -8 -198 -8 0 -43 11 -78 25 -70
28 -94 57 -82 96 19 60 113 159 151 159 7 0 14 -33 17 -82z m236 -138 c1 -13
0 -13 -9 0 -5 8 -9 26 -9 40 l1 25 8 -25 c4 -14 8 -32 9 -40z m-162 -67 c-2
-21 -4 -4 -4 37 0 41 2 58 4 38 2 -21 2 -55 0 -75z m50 10 c-2 -21 -4 -6 -4
32 0 39 2 55 4 38 2 -18 2 -50 0 -70z m55 52 c3 -14 1 -25 -3 -25 -5 0 -9 11
-9 25 0 14 2 25 4 25 2 0 6 -11 8 -25z m-352 -67 c26 16 30 15 30 -3 0 -9 10
-20 23 -26 18 -8 15 -8 -13 -3 -19 4 -47 6 -62 6 -16 -1 -28 3 -28 8 0 4 -3
17 -7 27 -6 17 -5 17 16 -2 18 -16 25 -17 41 -7z"/>
<path d="M3678 4633 c7 -3 16 -2 19 1 4 3 -2 6 -13 5 -11 0 -14 -3 -6 -6z"/>
<path d="M3765 4630 c11 -5 27 -9 35 -9 9 0 8 4 -5 9 -11 5 -27 9 -35 9 -9 0
-8 -4 5 -9z"/>
<path d="M3940 4550 c8 -5 20 -10 25 -10 6 0 3 5 -5 10 -8 5 -19 10 -25 10 -5
0 -3 -5 5 -10z"/>
<path d="M2766 4363 c-15 -30 -60 -67 -116 -95 -26 -13 -30 -17 -15 -18 11 0
37 -3 59 -6 21 -3 41 -2 45 3 3 4 15 13 25 19 11 6 28 30 38 55 l19 44 -45
-45 c-30 -29 -46 -39 -46 -28 0 9 18 32 40 52 44 39 47 46 25 46 -8 0 -21 -12
-29 -27z"/>
<path d="M2608 4233 c7 -3 16 -2 19 1 4 3 -2 6 -13 5 -11 0 -14 -3 -6 -6z"/>
<path d="M1763 4383 c9 -2 25 -2 35 0 9 3 1 5 -18 5 -19 0 -27 -2 -17 -5z"/>
<path d="M2178 4193 c7 -3 16 -2 19 1 4 3 -2 6 -13 5 -11 0 -14 -3 -6 -6z"/>
<path d="M1560 3880 c-8 -5 -10 -10 -5 -10 6 0 17 5 25 10 8 5 11 10 5 10 -5
0 -17 -5 -25 -10z"/>
<path d="M1498 3833 c6 -2 18 -2 25 0 6 3 1 5 -13 5 -14 0 -19 -2 -12 -5z"/>
<path d="M2695 2660 c10 -11 20 -20 23 -20 3 0 -3 9 -13 20 -10 11 -20 20 -23
20 -3 0 3 -9 13 -20z"/>
<path d="M2050 4890 c-8 -5 -10 -10 -5 -10 6 0 17 5 25 10 8 5 11 10 5 10 -5
0 -17 -5 -25 -10z"/>
<path d="M1930 4840 c-8 -5 -10 -10 -5 -10 6 0 17 5 25 10 8 5 11 10 5 10 -5
0 -17 -5 -25 -10z"/>
<path d="M3970 4820 c8 -5 20 -10 25 -10 6 0 3 5 -5 10 -8 5 -19 10 -25 10 -5
0 -3 -5 5 -10z"/>
<path d="M1720 4735 c-14 -8 -20 -14 -14 -15 5 0 19 7 30 15 24 18 16 19 -16
0z"/>
<path d="M1648 4699 c-21 -11 -38 -22 -38 -24 0 -3 18 4 40 15 22 11 40 23 40
25 0 7 0 7 -42 -16z"/>
<path d="M3770 4480 c8 -5 20 -10 25 -10 6 0 3 5 -5 10 -8 5 -19 10 -25 10 -5
0 -3 -5 5 -10z"/>
<path d="M3851 4440 c-9 -5 -3 -9 16 -13 34 -6 37 -5 14 10 -10 6 -23 8 -30 3z"/>
<path d="M4690 4296 c0 -3 9 -10 20 -16 11 -6 20 -8 20 -6 0 3 -9 10 -20 16
-11 6 -20 8 -20 6z"/>
<path d="M458 4253 c7 -3 16 -2 19 1 4 3 -2 6 -13 5 -11 0 -14 -3 -6 -6z"/>
<path d="M5418 4253 c7 -3 16 -2 19 1 4 3 -2 6 -13 5 -11 0 -14 -3 -6 -6z"/>
<path d="M248 4243 c7 -3 16 -2 19 1 4 3 -2 6 -13 5 -11 0 -14 -3 -6 -6z"/>
<path d="M303 4243 c9 -2 25 -2 35 0 9 3 1 5 -18 5 -19 0 -27 -2 -17 -5z"/>
<path d="M838 4173 c7 -3 16 -2 19 1 4 3 -2 6 -13 5 -11 0 -14 -3 -6 -6z"/>
<path d="M3563 4151 c1 -15 4 -17 14 -9 7 5 10 14 7 19 -10 16 -23 9 -21 -10z"/>
<path d="M738 4143 c7 -3 16 -2 19 1 4 3 -2 6 -13 5 -11 0 -14 -3 -6 -6z"/>
<path d="M5148 4135 c52 -17 227 -38 268 -32 21 3 17 4 -16 6 -40 1 -187 21
-267 36 -15 2 -9 -2 15 -10z"/>
<path d="M4480 4070 c8 -5 20 -10 25 -10 6 0 3 5 -5 10 -8 5 -19 10 -25 10 -5
0 -3 -5 5 -10z"/>
<path d="M538 4057 c-51 -20 -30 -34 60 -41 32 -3 46 -3 32 0 -60 11 -70 15
-65 24 3 6 18 10 32 10 31 0 28 5 -7 12 -14 3 -37 1 -52 -5z"/>
<path d="M4805 3979 c11 -7 58 -14 105 -15 l85 -3 -80 8 c-44 5 -91 11 -105
15 -23 6 -24 6 -5 -5z"/>
<path d="M5018 3973 c7 -3 16 -2 19 1 4 3 -2 6 -13 5 -11 0 -14 -3 -6 -6z"/>
<path d="M4475 3935 c17 -8 37 -14 45 -14 8 0 -1 7 -20 14 -46 18 -64 17 -25
0z"/>
<path d="M1420 3900 c-18 -12 -2 -12 25 0 13 6 15 9 5 9 -8 0 -22 -4 -30 -9z"/>
<path d="M4578 3903 c7 -3 16 -2 19 1 4 3 -2 6 -13 5 -11 0 -14 -3 -6 -6z"/>
<path d="M4618 3893 c7 -3 16 -2 19 1 4 3 -2 6 -13 5 -11 0 -14 -3 -6 -6z"/>
<path d="M1378 3883 c7 -3 16 -2 19 1 4 3 -2 6 -13 5 -11 0 -14 -3 -6 -6z"/>
<path d="M4125 3780 c19 -8 103 -14 94 -6 -2 2 -29 6 -59 9 -36 4 -48 3 -35
-3z"/>
<path d="M3665 2769 c-4 -6 -5 -12 -2 -15 2 -3 7 2 10 11 7 17 1 20 -8 4z"/>
<path d="M3552 2173 c-6 -16 -14 -41 -18 -57 -10 -41 -48 -107 -81 -138 -15
-15 -56 -41 -91 -58 -76 -37 -308 -113 -446 -145 -56 -13 -112 -27 -125 -31
-18 -5 -22 -4 -16 5 6 10 3 11 -14 1 -12 -6 -19 -16 -15 -22 4 -6 1 -9 -7 -6
-8 3 -13 11 -11 17 4 18 -47 -16 -100 -68 -60 -56 -83 -119 -75 -202 6 -74 36
-127 98 -174 56 -43 188 -97 239 -99 42 -1 113 31 104 46 -4 7 -2 8 4 4 16
-10 134 52 126 66 -4 7 -3 8 4 4 12 -7 66 17 78 35 5 8 1 8 -14 0 -11 -6 -25
-11 -30 -11 -10 0 -7 226 4 307 6 52 12 56 50 37 75 -39 122 -121 109 -191 -5
-28 -21 -51 -58 -87 l-52 -48 50 33 c64 43 69 48 86 83 28 59 79 62 79 5 0
-43 -33 -93 -84 -128 -24 -17 -130 -73 -237 -125 -107 -53 -211 -105 -231
-116 -44 -24 -58 -25 -58 -5 0 46 -60 -22 -89 -100 -26 -69 -26 -101 -2 -157
28 -67 70 -109 138 -140 47 -21 63 -33 63 -48 0 -25 5 -25 41 2 16 13 48 38
72 56 23 17 47 36 52 40 6 4 25 19 43 32 17 13 28 26 23 29 -12 9 -20 134 -12
218 l6 72 32 -15 c57 -28 77 -106 48 -189 l-14 -40 25 30 c13 17 24 37 24 46
0 27 26 41 72 38 l43 -3 -2 39 c-4 67 -19 89 -73 110 -28 11 -62 29 -76 41
-25 22 -25 23 -5 33 11 6 27 8 35 5 12 -4 15 -2 11 9 -4 8 1 17 11 21 41 16
148 105 175 145 41 62 37 83 -6 35 -31 -34 -30 -31 10 26 40 56 45 70 45 117
0 31 -4 53 -11 53 -5 0 -7 -4 -4 -10 3 -5 -1 -10 -9 -10 -9 0 -16 4 -16 10 0
20 -72 89 -140 135 -68 46 -70 48 -50 62 14 10 31 12 53 7 28 -6 30 -5 19 9
-11 13 -5 21 46 55 32 22 71 57 87 79 16 21 33 41 38 44 5 4 6 12 3 18 -4 6 2
26 12 44 18 29 41 147 29 147 -2 0 -9 -12 -15 -27z m-182 -277 c0 -2 -7 -7
-16 -10 -8 -3 -12 -2 -9 4 6 10 25 14 25 6z m-172 -91 c1 -1 -32 -8 -74 -14
-84 -14 -110 -8 -43 9 24 6 49 13 54 15 9 3 56 -5 63 -10z m-494 -119 c-21
-15 -30 -14 -19 3 3 6 14 11 23 11 13 0 13 -2 -4 -14z m205 -187 l2 -141 -38
7 c-50 9 -121 61 -128 94 -11 50 43 133 110 169 51 28 53 23 54 -129z m214
-22 c-2 -78 -6 -143 -9 -146 -2 -2 -4 67 -4 155 0 88 4 153 9 146 4 -7 6 -77
4 -155z m-52 -95 c-7 -12 -10 18 -11 104 0 66 3 124 8 128 11 12 14 -212 3
-232z m-41 83 c0 -69 -4 -125 -9 -125 -5 0 -10 56 -10 125 -1 81 2 125 9 125
6 0 10 -45 10 -125z m-52 -47 l-2 -153 -6 145 c-3 80 -4 148 -2 153 10 23 12
-8 10 -145z m-269 -28 c0 -3 -8 6 -19 20 -20 25 -26 61 -13 74 5 5 31 -70 32
-94z m21 80 c0 -5 -5 -10 -11 -10 -5 0 -7 5 -4 10 3 6 8 10 11 10 2 0 4 -4 4
-10z m106 -117 c-8 -8 -56 25 -56 38 0 6 14 1 31 -11 16 -12 28 -25 25 -27z
m-33 -42 c8 -9 0 -8 -21 5 -19 10 -39 25 -45 33 -8 9 0 8 21 -5 19 -10 39 -25
45 -33z m224 -3 c-3 -8 -6 -5 -6 6 -1 11 2 17 5 13 3 -3 4 -12 1 -19z m-177
-24 c0 -2 -9 -4 -21 -4 -11 0 -18 4 -14 10 5 8 35 3 35 -6z m270 -99 c0 -7
-109 -56 -136 -61 -12 -2 -38 -11 -59 -19 -20 -9 -34 -12 -31 -6 9 14 116 63
149 67 16 2 36 8 45 14 19 10 32 13 32 5z m224 -117 c21 -30 20 -41 -4 -56
-19 -11 -20 -10 -18 17 1 17 -5 38 -15 49 -9 10 -17 22 -17 26 0 12 38 -13 54
-36z m-237 -190 c-2 -35 -3 -9 -3 57 0 66 1 94 3 63 2 -32 2 -86 0 -120z m-80
25 c-2 -27 -3 -5 -3 47 0 52 1 74 3 48 2 -27 2 -69 0 -95z m-107 32 c0 -52 -3
-95 -7 -95 -18 1 -53 36 -54 55 -4 42 2 71 21 103 32 52 40 40 40 -63z m147
-27 c-2 -24 -4 -5 -4 42 0 47 2 66 4 43 2 -24 2 -62 0 -85z m-80 0 c-2 -24 -4
-7 -4 37 0 44 2 63 4 43 2 -21 2 -57 0 -80z"/>
<path d="M2790 1769 c0 -5 5 -7 10 -4 6 3 10 8 10 11 0 2 -4 4 -10 4 -5 0 -10
-5 -10 -11z"/>
<path d="M2877 1169 c-22 -11 -36 -23 -33 -26 5 -5 76 35 76 43 0 6 -1 5 -43
-17z"/>
<path d="M3372 940 c0 -14 2 -19 5 -12 2 6 2 18 0 25 -3 6 -5 1 -5 -13z"/>
<path d="M3345 877 c-27 -44 -29 -51 -15 -42 9 5 11 4 6 -4 -4 -6 -12 -8 -18
-5 -6 4 -13 2 -17 -3 -3 -5 -49 -38 -101 -73 -109 -72 -152 -109 -143 -123 3
-6 2 -7 -4 -4 -5 3 -34 -13 -64 -37 -30 -24 -65 -48 -77 -55 -23 -12 -23 -12
-34 28 -4 16 -54 -73 -113 -204 -23 -49 -63 -121 -89 -159 -32 -46 -43 -71
-36 -76 13 -8 -34 -50 -56 -50 -8 0 -14 -11 -14 -25 0 -18 5 -25 20 -25 11 0
23 7 26 15 4 8 11 15 18 15 23 0 139 108 173 161 19 30 51 87 70 127 25 52 41
72 54 72 18 0 19 -10 19 -163 0 -191 10 -227 62 -227 23 0 82 20 106 35 1 1
-1 10 -4 20 -7 17 -8 16 -15 -3 -7 -18 -16 -22 -54 -22 -55 0 -59 8 -47 86 6
39 10 49 11 29 2 -16 6 -39 11 -50 8 -18 9 -18 10 5 l1 25 11 -25 11 -25 7 25
7 25 11 -25 c10 -22 11 -19 13 30 2 42 3 46 6 20 8 -63 20 -53 22 17 1 37 3
79 5 93 3 14 5 82 5 153 1 78 5 127 11 127 15 0 40 -32 80 -100 110 -187 133
-221 173 -254 56 -46 155 -92 169 -78 19 19 4 47 -25 48 -15 1 -37 11 -50 23
-12 13 -43 38 -69 57 -60 44 -152 204 -161 282 -7 59 -22 86 -54 101 -25 12
-30 29 -10 37 7 2 41 31 75 63 46 43 69 74 83 111 23 62 21 71 -6 27z m-380
-356 c6 -11 -12 -25 -37 -26 -21 -2 -23 6 -6 23 14 14 35 16 43 3z"/>
</g>
</svg>
